<svg xmlns="http://www.w3.org/2000/svg" width="192" height="216" viewBox="0 0 192 216">
  <defs>
    <style>
      .cls-1 {
        fill: #6c8ccc;
      }

      .cls-1, .cls-2, .cls-3 {
        fill-rule: evenodd;
      }

      .cls-2 {
        fill: #3a4d6b;
      }

      .cls-3 {
        fill: #a3bfff;
      }
    </style>
  </defs>
  <path class="cls-1" d="M104.088,111.013l85.659-49.345c1.158-.667,2.1-0.576,2.1.2l0.1,100.979a3.965,3.965,0,0,1-2.1,2.627l-85.79,49.429c-1.16.669-2.1,0.576-2.1-.206l0.036-101.067A3.964,3.964,0,0,1,104.088,111.013Z"/>
  <path class="cls-2" d="M88.451,111.013L2.792,61.668c-1.158-.667-2.1-0.576-2.1.2l-0.1,100.979a3.967,3.967,0,0,0,2.1,2.627l85.79,49.429c1.16,0.669,2.1.576,2.1-.206L90.549,113.634A3.967,3.967,0,0,0,88.451,111.013Z"/>
  <path class="cls-3" d="M99.578,1.084l84.448,48.809c1.5,0.866,1.595,2.215.214,3.013L99.253,102.019a5.767,5.767,0,0,1-5.213-.124L9.592,53.086C8.093,52.22,8,50.871,9.378,50.073L94.365,0.96A5.767,5.767,0,0,1,99.578,1.084Z"/>
</svg>
